<svg xmlns="http://www.w3.org/2000/svg" xmlns:svg="http://www.w3.org/2000/svg" id="svg2" width="120mm" height="120mm" version="1.1" viewBox="0 0 425.197 425.197"><metadata id="metadata7"/><g id="layer2" display="inline" transform="translate(0,-283.46457)"><g id="g4414" transform="translate(-213.40878,219.87543)"><g id="g4423"><path id="rect4136-7-7-2" fill="none" fill-opacity="1" fill-rule="nonzero" stroke="#fff" stroke-dasharray="none" stroke-dashoffset="0" stroke-linecap="round" stroke-linejoin="round" stroke-miterlimit="4" stroke-opacity="1" stroke-width="35" d="m 317.86656,136.33349 216.90309,0 c 19.46322,0 35.13219,15.66896 35.13219,35.1322 l 0,216.90308 c 0,19.46323 -15.66897,35.13219 -35.13219,35.13219 l -216.90309,0 c -19.46323,0 -35.13219,-15.66896 -35.13219,-35.13219 l 0,-216.90308 c 0,-19.46324 15.66896,-35.1322 35.13219,-35.1322 z" clip-rule="nonzero" color="#000" color-interpolation="sRGB" color-interpolation-filters="linearRGB" color-rendering="auto" display="inline" enable-background="accumulate" image-rendering="auto" opacity="1" overflow="visible" shape-rendering="auto" text-rendering="auto" visibility="visible" style="isolation:auto;mix-blend-mode:normal;solid-color:#000;solid-opacity:1"/><path id="rect4136-7-7" fill="#fff" fill-opacity="1" fill-rule="nonzero" stroke="#323232" stroke-dasharray="none" stroke-dashoffset="0" stroke-linecap="round" stroke-linejoin="round" stroke-miterlimit="4" stroke-opacity="1" stroke-width="30" d="m 333.12633,156.53655 186.38359,0 c 16.72464,0 30.18889,13.46425 30.18889,30.1889 l 0,186.38359 c 0,16.72464 -13.46425,30.18889 -30.18889,30.18889 l -186.38359,0 c -16.72465,0 -30.1889,-13.46425 -30.1889,-30.18889 l 0,-186.38359 c 0,-16.72465 13.46425,-30.1889 30.1889,-30.1889 z" clip-rule="nonzero" color="#000" color-interpolation="sRGB" color-interpolation-filters="linearRGB" color-rendering="auto" display="inline" enable-background="accumulate" image-rendering="auto" opacity="1" overflow="visible" shape-rendering="auto" text-rendering="auto" visibility="visible" style="isolation:auto;mix-blend-mode:normal;solid-color:#000;solid-opacity:1"/><g id="g4419" transform="matrix(0.95057278,0,0,0.95062158,61.271091,-27.175928)"><path id="path12" fill="#323232" fill-opacity="1" stroke="#fff" stroke-dasharray="none" stroke-linecap="butt" stroke-linejoin="miter" stroke-miterlimit="4" stroke-opacity="1" stroke-width="26.299" d="m 536.28635,304.9012 c 8.09891,10e-6 15.45407,-3.27812 20.74316,-8.56722 5.31663,-5.31664 8.6223,-12.64423 8.56722,-20.74316 l -4e-5,-105.01045 c 7e-5,-7.8235 -3.08529,-15.26126 -8.56721,-20.74316 -5.50946,-5.50946 -12.97475,-8.62237 -20.74316,-8.56722 l -103.77084,-0.0276 c -16.19783,2e-5 -29.33791,13.14009 -29.36544,29.36547 -10e-6,16.19783 13.14007,29.33791 29.36546,29.36547 l 74.43294,1e-5 -2e-5,75.5899 c -0.0275,16.22541 13.14008,29.39303 29.33793,29.33793 z"/><rect clip-rule="nonzero" style="isolation:auto;mix-blend-mode:normal;solid-color:#000;solid-opacity:1" id="rect4136-7-7-5" width="32.857" height="150" x="483.254" y="-245.021" fill="#323232" fill-opacity="1" fill-rule="nonzero" stroke="none" stroke-dasharray="none" stroke-dashoffset="0" stroke-linecap="round" stroke-linejoin="round" stroke-miterlimit="4" stroke-opacity="1" stroke-width="30" color="#000" color-interpolation="sRGB" color-interpolation-filters="linearRGB" color-rendering="auto" display="inline" enable-background="accumulate" image-rendering="auto" opacity="1" overflow="visible" ry="18.351" shape-rendering="auto" text-rendering="auto" transform="matrix(0.70710678,0.70710678,-0.70710678,0.70710678,0,0)" visibility="visible"/></g><rect stroke-width="25" style="isolation:auto;mix-blend-mode:normal;solid-color:#000;solid-opacity:1" id="rect4441" width="40.406" height="32.325" x="525.546" y="249.38" fill="#fff" fill-opacity="1" fill-rule="nonzero" stroke="none" stroke-dasharray="none" stroke-dashoffset="0" stroke-linecap="butt" stroke-linejoin="miter" stroke-miterlimit="4" stroke-opacity="1" clip-rule="nonzero" color="#000" color-interpolation="sRGB" color-interpolation-filters="linearRGB" color-rendering="auto" display="inline" enable-background="accumulate" image-rendering="auto" opacity="1" overflow="visible" ry="0" shape-rendering="auto" text-rendering="auto" visibility="visible"/><rect stroke-width="25" style="isolation:auto;mix-blend-mode:normal;solid-color:#000;solid-opacity:1" id="rect4441-9" width="31.315" height="41.416" x="424.531" y="139.273" fill="#fff" fill-opacity="1" fill-rule="nonzero" stroke="none" stroke-dasharray="none" stroke-dashoffset="0" stroke-linecap="butt" stroke-linejoin="miter" stroke-miterlimit="4" stroke-opacity="1" clip-rule="nonzero" color="#000" color-interpolation="sRGB" color-interpolation-filters="linearRGB" color-rendering="auto" display="inline" enable-background="accumulate" image-rendering="auto" opacity="1" overflow="visible" ry="0" shape-rendering="auto" text-rendering="auto" visibility="visible"/></g></g></g></svg>